<svg id="svg" xmlns="http://www.w3.org/2000/svg" xmlns:xlink="http://www.w3.org/1999/xlink" width="500" height="550.65359477124184" viewBox="0, 0, 500,500.65359477124184"><g id="svgg"><path id="path0" d="M120.500 55.062 C 120.225 55.175,120.000 55.942,120.000 56.767 C 120.000 57.592,119.867 58.399,119.705 58.562 C 119.543 58.724,119.400 59.069,119.388 59.328 C 119.284 61.484,118.641 65.200,118.372 65.200 C 118.188 65.200,118.055 65.605,118.075 66.100 C 118.155 67.998,117.987 69.239,117.677 69.048 C 117.500 68.938,117.339 69.602,117.321 70.524 C 117.269 73.137,116.760 76.553,116.347 77.058 C 116.141 77.310,116.012 77.670,116.061 77.858 C 116.253 78.603,115.102 85.451,114.489 87.200 C 114.162 88.135,114.087 88.617,113.792 91.709 C 113.640 93.299,113.431 94.740,113.328 94.911 C 113.224 95.082,113.066 95.801,112.976 96.509 C 112.887 97.217,112.630 97.857,112.407 97.931 C 112.183 98.006,112.000 98.242,112.000 98.457 C 112.000 98.672,112.208 98.719,112.462 98.562 C 112.716 98.405,112.818 98.447,112.689 98.655 C 112.561 98.864,112.348 99.836,112.216 100.817 C 112.085 101.798,111.879 103.317,111.760 104.194 C 111.640 105.071,111.420 105.881,111.271 105.994 C 111.122 106.107,110.938 106.830,110.861 107.600 C 110.785 108.370,110.605 109.090,110.461 109.200 C 110.318 109.310,110.167 110.210,110.128 111.200 C 110.032 113.590,109.569 116.551,109.253 116.800 C 109.114 116.910,108.965 117.540,108.923 118.200 C 108.754 120.864,108.297 123.838,107.958 124.474 C 107.761 124.844,107.600 125.710,107.600 126.397 C 107.600 127.085,107.450 127.555,107.267 127.441 C 107.083 127.328,106.933 127.489,106.933 127.800 C 106.933 128.111,107.111 128.255,107.328 128.121 C 107.573 127.969,107.593 128.088,107.381 128.431 C 106.998 129.051,106.986 129.119,106.576 132.900 C 106.416 134.385,106.120 135.600,105.919 135.600 C 105.717 135.600,105.665 135.782,105.803 136.005 C 105.941 136.228,105.784 136.951,105.454 137.612 C 105.124 138.273,105.051 138.692,105.290 138.544 C 105.588 138.360,105.628 138.580,105.418 139.237 C 105.249 139.767,105.046 140.740,104.969 141.400 C 104.692 143.753,104.320 145.406,103.972 145.830 C 103.762 146.086,103.809 146.449,104.090 146.730 C 104.348 146.988,104.383 147.200,104.167 147.200 C 103.951 147.200,103.734 147.695,103.684 148.300 C 103.634 148.905,103.407 149.463,103.180 149.539 C 102.908 149.630,102.926 149.870,103.232 150.239 C 103.488 150.548,103.528 150.800,103.321 150.800 C 103.113 150.800,102.920 151.385,102.892 152.100 C 102.811 154.154,102.329 156.174,101.845 156.494 C 101.519 156.709,101.519 156.789,101.846 156.794 C 102.153 156.798,102.196 157.330,101.982 158.497 C 101.812 159.430,101.774 160.357,101.898 160.558 C 102.022 160.759,101.904 160.788,101.635 160.622 C 101.336 160.437,101.175 160.529,101.221 160.860 C 101.428 162.370,101.153 165.618,100.835 165.421 C 100.634 165.297,100.499 165.782,100.535 166.498 L 100.600 167.800 135.600 168.003 C 154.850 168.115,170.330 168.271,170.000 168.351 C 169.670 168.430,169.252 168.469,169.070 168.437 C 168.889 168.406,168.855 168.566,168.996 168.793 C 169.136 169.020,168.969 169.314,168.625 169.446 C 168.281 169.578,168.000 169.936,168.000 170.243 C 168.000 170.549,167.865 170.758,167.700 170.706 C 167.347 170.596,165.772 171.911,163.342 174.345 C 162.384 175.304,161.600 175.991,161.600 175.871 C 161.600 175.750,160.725 176.504,159.657 177.545 C 158.588 178.586,157.463 179.360,157.157 179.264 C 156.850 179.169,156.726 179.227,156.881 179.393 C 157.206 179.742,156.264 180.800,155.629 180.800 C 155.393 180.800,155.200 180.986,155.200 181.212 C 155.200 181.439,154.453 182.294,153.539 183.112 C 152.626 183.931,151.546 184.915,151.139 185.300 C 150.733 185.685,150.130 186.000,149.800 186.000 C 149.470 186.000,149.245 186.160,149.300 186.356 C 149.429 186.816,146.124 189.991,145.826 189.693 C 145.702 189.568,145.600 189.677,145.600 189.933 C 145.600 190.190,145.335 190.400,145.010 190.400 C 144.686 190.400,144.138 190.946,143.793 191.613 C 143.448 192.280,143.014 192.732,142.828 192.617 C 142.643 192.503,142.268 192.677,141.996 193.004 C 141.724 193.332,141.612 193.600,141.747 193.600 C 141.882 193.600,141.684 193.960,141.307 194.400 C 140.930 194.840,140.474 195.200,140.292 195.200 C 140.110 195.200,139.539 195.656,139.022 196.214 C 138.506 196.771,137.847 197.176,137.560 197.114 C 137.272 197.051,137.025 197.180,137.012 197.400 C 136.985 197.857,133.411 201.600,133.002 201.600 C 132.854 201.600,132.121 202.230,131.374 203.000 C 130.034 204.380,129.281 204.840,129.838 203.938 C 130.016 203.650,129.948 203.585,129.655 203.766 C 129.398 203.925,129.291 204.223,129.417 204.428 C 129.544 204.632,129.446 204.800,129.200 204.800 C 128.954 204.800,128.864 204.980,129.000 205.200 C 129.136 205.420,129.037 205.600,128.781 205.600 C 128.525 205.600,127.961 206.050,127.529 206.600 C 127.096 207.150,126.554 207.600,126.325 207.600 C 126.096 207.600,125.299 208.265,124.554 209.078 C 123.809 209.891,123.200 210.449,123.200 210.318 C 123.200 210.187,122.402 210.890,121.426 211.880 C 120.450 212.869,119.456 213.558,119.216 213.410 C 118.976 213.262,118.806 213.289,118.837 213.470 C 118.995 214.379,118.723 214.800,117.976 214.800 C 117.523 214.800,117.258 214.971,117.388 215.180 C 117.517 215.389,117.257 215.755,116.811 215.994 C 116.365 216.233,116.000 216.686,116.000 217.002 C 116.000 217.347,115.761 217.483,115.400 217.345 C 115.020 217.199,114.800 217.350,114.800 217.757 C 114.800 218.111,114.665 218.400,114.500 218.401 C 114.335 218.401,113.581 218.931,112.824 219.578 C 112.068 220.224,111.298 220.661,111.114 220.547 C 110.931 220.433,110.806 220.489,110.837 220.670 C 110.953 221.336,110.794 222.127,110.586 221.920 C 110.469 221.802,109.472 222.588,108.370 223.667 C 107.269 224.745,106.191 225.518,105.974 225.384 C 105.757 225.250,105.630 225.289,105.690 225.470 C 105.838 225.913,104.129 227.596,103.833 227.300 C 103.705 227.172,103.600 227.287,103.600 227.557 C 103.600 227.827,103.420 227.936,103.200 227.800 C 102.980 227.664,102.800 227.720,102.800 227.924 C 102.800 228.448,99.930 231.663,99.683 231.416 C 99.571 231.305,99.026 231.705,98.472 232.307 C 97.919 232.908,96.982 233.760,96.390 234.200 C 95.799 234.640,95.295 235.142,95.271 235.315 C 95.188 235.890,92.916 237.583,92.622 237.289 C 92.463 237.130,92.393 237.270,92.467 237.600 C 92.548 237.965,92.332 238.179,91.916 238.147 C 91.539 238.118,91.269 238.298,91.316 238.547 C 91.362 238.796,91.175 238.955,90.900 238.900 C 90.625 238.845,90.445 238.962,90.500 239.161 C 90.555 239.360,89.745 240.347,88.700 241.354 C 86.901 243.089,86.515 244.011,86.779 245.940 C 86.820 246.237,86.699 246.385,86.511 246.268 C 86.322 246.152,86.139 246.779,86.104 247.662 C 86.068 248.545,85.852 249.837,85.623 250.534 C 85.393 251.230,85.284 252.205,85.380 252.700 C 85.476 253.195,85.423 253.600,85.262 253.600 C 85.102 253.600,84.926 254.185,84.872 254.900 C 84.819 255.615,84.600 256.260,84.387 256.333 C 84.174 256.407,84.000 256.642,84.000 256.857 C 84.000 257.072,84.208 257.119,84.462 256.962 C 84.778 256.766,84.813 256.854,84.574 257.238 C 84.381 257.547,84.187 258.160,84.143 258.600 C 84.098 259.040,83.949 260.120,83.811 261.000 C 83.673 261.880,83.542 263.095,83.519 263.700 C 83.497 264.305,83.326 264.800,83.139 264.800 C 82.953 264.800,82.800 265.700,82.800 266.800 C 82.800 267.900,82.641 268.800,82.447 268.800 C 82.252 268.800,82.094 269.295,82.095 269.900 C 82.098 271.968,81.496 275.800,81.148 275.933 C 80.957 276.007,80.800 276.962,80.800 278.057 C 80.800 279.152,80.648 279.953,80.462 279.839 C 80.277 279.724,80.166 280.255,80.218 281.019 C 80.269 281.783,80.182 282.488,80.025 282.585 C 79.867 282.682,79.697 283.795,79.646 285.057 C 79.594 286.320,79.433 287.544,79.286 287.776 C 79.140 288.009,78.965 288.650,78.898 289.200 C 78.831 289.750,78.627 290.650,78.446 291.200 C 78.265 291.750,78.145 292.875,78.180 293.700 C 78.215 294.525,78.136 295.200,78.004 295.200 C 77.872 295.200,77.721 295.834,77.669 296.608 C 77.616 297.383,77.400 298.475,77.187 299.034 C 76.974 299.594,76.800 300.501,76.800 301.050 C 76.800 301.673,76.635 301.945,76.360 301.775 C 76.043 301.579,76.039 301.725,76.346 302.299 C 76.580 302.737,76.643 303.223,76.486 303.381 C 76.329 303.538,76.178 304.012,76.150 304.433 C 76.123 304.855,76.055 305.290,76.000 305.400 C 75.871 305.659,75.713 306.928,75.650 308.224 C 75.623 308.787,75.462 309.162,75.293 309.057 C 75.124 308.953,74.963 309.527,74.936 310.334 C 74.837 313.237,74.290 317.003,73.949 317.133 C 73.757 317.207,73.600 318.141,73.600 319.210 C 73.600 320.278,73.419 321.264,73.199 321.401 C 72.978 321.537,72.888 322.167,73.000 322.800 C 73.112 323.433,73.056 324.042,72.877 324.152 C 72.698 324.263,72.507 325.215,72.453 326.267 C 72.398 327.320,72.223 328.276,72.062 328.391 C 71.902 328.506,71.715 329.320,71.647 330.200 C 71.578 331.080,71.406 331.980,71.264 332.200 C 71.122 332.420,70.982 332.960,70.953 333.400 C 70.800 335.712,70.286 339.450,70.072 339.800 C 69.937 340.020,69.799 340.650,69.765 341.200 C 69.651 343.065,69.600 343.247,69.258 343.036 C 69.070 342.919,68.999 343.263,69.102 343.799 C 69.354 345.115,69.491 345.139,78.400 345.393 C 116.869 346.493,199.901 346.076,200.800 344.778 C 200.910 344.619,202.350 344.385,204.000 344.258 C 205.650 344.131,207.630 343.929,208.400 343.811 C 209.170 343.692,210.655 343.488,211.700 343.357 C 212.745 343.226,213.600 342.983,213.600 342.815 C 213.600 342.551,216.408 342.012,218.500 341.875 C 218.885 341.849,219.200 341.687,219.200 341.514 C 219.200 341.341,219.740 341.200,220.400 341.200 C 221.060 341.200,221.600 341.050,221.600 340.867 C 221.600 340.684,222.005 340.569,222.500 340.612 C 222.995 340.655,223.580 340.585,223.800 340.455 C 224.020 340.326,224.637 340.160,225.171 340.087 C 225.705 340.014,226.637 339.601,227.243 339.170 C 227.963 338.656,228.435 338.533,228.608 338.812 C 228.792 339.111,229.035 339.103,229.418 338.785 C 229.719 338.535,230.181 338.464,230.444 338.627 C 230.748 338.815,230.819 338.754,230.638 338.462 C 230.481 338.208,230.543 337.978,230.776 337.950 C 231.553 337.858,231.797 337.790,232.200 337.549 C 232.420 337.418,233.140 337.165,233.800 336.988 C 235.292 336.587,235.174 336.627,236.534 336.064 C 237.157 335.805,237.817 335.687,237.999 335.800 C 238.182 335.913,238.395 335.814,238.473 335.581 C 238.604 335.188,239.453 334.905,240.724 334.831 C 241.012 334.814,241.147 334.638,241.024 334.439 C 240.759 334.010,242.701 333.273,243.700 333.424 C 244.085 333.482,244.400 333.386,244.400 333.210 C 244.400 332.846,247.154 331.467,247.882 331.467 C 248.148 331.467,248.299 331.360,248.218 331.230 C 248.138 331.099,248.821 330.658,249.736 330.249 C 250.651 329.840,252.092 329.167,252.938 328.753 C 253.784 328.339,254.667 328.118,254.900 328.262 C 255.149 328.416,255.206 328.333,255.038 328.062 C 254.867 327.785,255.013 327.600,255.400 327.600 C 255.756 327.600,255.936 327.420,255.800 327.200 C 255.664 326.980,255.923 326.800,256.376 326.800 C 256.829 326.800,257.200 326.634,257.200 326.432 C 257.200 326.229,257.769 325.939,258.464 325.786 C 259.159 325.633,260.161 325.076,260.690 324.547 C 261.219 324.018,261.848 323.706,262.088 323.854 C 262.333 324.006,262.410 323.940,262.264 323.704 C 262.018 323.305,263.062 322.601,263.700 322.736 C 263.865 322.771,264.360 322.485,264.800 322.100 C 265.240 321.715,265.960 321.085,266.400 320.700 C 266.840 320.315,267.200 320.191,267.200 320.424 C 267.200 320.657,267.383 320.734,267.607 320.596 C 267.830 320.458,267.909 320.177,267.783 319.972 C 267.587 319.655,268.380 319.423,269.263 319.540 C 269.593 319.584,269.452 318.519,269.078 318.145 C 268.925 317.992,268.800 301.697,268.800 281.933 C 268.800 253.460,268.696 245.997,268.300 245.987 C 267.952 245.978,267.982 245.827,268.400 245.487 C 268.730 245.219,269.062 244.640,269.139 244.200 C 269.253 243.543,269.121 243.598,268.401 244.512 C 267.918 245.123,267.623 245.882,267.744 246.199 C 267.866 246.515,267.801 246.876,267.600 247.000 C 267.399 247.124,267.336 247.490,267.460 247.813 C 267.584 248.136,267.496 248.400,267.265 248.400 C 266.826 248.400,266.111 249.557,264.981 252.097 C 264.615 252.921,264.150 253.493,263.948 253.368 C 263.746 253.243,263.619 253.289,263.666 253.470 C 263.827 254.084,263.139 256.400,262.796 256.400 C 262.609 256.400,262.051 257.211,261.556 258.201 C 261.062 259.192,260.329 260.355,259.928 260.785 C 259.528 261.215,259.200 261.681,259.200 261.820 C 259.200 261.960,258.840 262.531,258.400 263.091 C 257.960 263.650,257.600 263.987,257.600 263.838 C 257.600 263.690,257.347 263.801,257.038 264.084 C 256.729 264.368,256.504 264.700,256.538 264.822 C 256.655 265.244,254.599 267.995,254.164 267.997 C 253.925 267.999,253.523 268.450,253.273 269.000 C 252.846 269.937,252.350 270.206,251.400 270.014 C 251.180 269.970,251.135 270.069,251.301 270.234 C 251.688 270.622,250.450 272.000,249.714 272.000 C 249.406 272.000,249.252 272.161,249.374 272.358 C 249.592 272.710,248.488 273.388,247.900 273.264 C 247.735 273.229,247.600 273.464,247.600 273.786 C 247.600 274.381,246.073 275.449,245.470 275.275 C 245.289 275.223,245.247 275.352,245.376 275.561 C 245.506 275.771,245.246 276.058,244.800 276.200 C 244.354 276.342,244.092 276.625,244.218 276.829 C 244.344 277.033,244.167 277.200,243.824 277.200 C 243.481 277.200,243.197 277.335,243.194 277.500 C 243.190 277.665,242.245 278.250,241.094 278.800 C 239.942 279.350,238.854 280.029,238.675 280.308 C 238.497 280.588,238.194 280.720,238.003 280.602 C 237.811 280.483,237.372 280.790,237.027 281.282 C 236.682 281.775,236.400 282.051,236.400 281.896 C 236.400 281.741,235.757 281.975,234.970 282.417 C 234.170 282.866,233.670 282.995,233.835 282.710 C 233.997 282.429,233.688 282.600,233.150 283.089 C 232.611 283.579,231.770 284.040,231.280 284.115 C 230.790 284.190,230.176 284.464,229.915 284.725 C 229.654 284.986,229.206 285.200,228.920 285.200 C 228.634 285.200,228.400 285.360,228.400 285.557 C 228.400 285.933,226.747 286.500,225.400 286.586 C 224.960 286.614,224.635 286.823,224.678 287.052 C 224.721 287.280,224.541 287.484,224.278 287.506 C 223.566 287.565,215.463 290.427,215.000 290.783 C 214.780 290.952,213.807 291.212,212.838 291.360 C 211.869 291.508,210.879 291.753,210.638 291.903 C 210.172 292.195,209.553 292.336,208.100 292.483 C 207.605 292.533,207.200 292.692,207.200 292.836 C 207.200 293.055,204.119 293.678,202.528 293.780 C 202.269 293.797,201.924 293.943,201.762 294.105 C 201.599 294.267,200.967 294.400,200.357 294.400 C 199.747 294.400,199.154 294.550,199.041 294.734 C 198.927 294.918,198.421 295.033,197.917 294.989 C 197.413 294.945,196.713 295.057,196.361 295.236 C 195.982 295.430,195.535 295.375,195.261 295.101 C 194.913 294.753,194.800 294.757,194.800 295.120 C 194.800 295.414,194.173 295.600,193.176 295.600 C 192.283 295.600,191.636 295.735,191.738 295.900 C 191.840 296.065,191.536 296.213,191.062 296.229 C 190.588 296.245,188.850 296.398,187.200 296.570 C 185.550 296.741,183.630 296.908,182.933 296.941 C 182.236 296.973,181.531 297.135,181.366 297.300 C 181.201 297.465,180.365 297.600,179.507 297.600 C 178.649 297.600,177.578 297.798,177.125 298.040 C 176.528 298.360,176.378 298.360,176.575 298.040 C 176.747 297.763,176.460 297.600,175.800 297.600 C 175.224 297.600,174.848 297.754,174.964 297.941 C 175.397 298.642,143.688 299.168,137.082 298.569 L 134.187 298.307 134.187 296.787 C 134.187 295.952,134.301 295.339,134.441 295.426 C 134.581 295.512,134.717 294.654,134.742 293.518 C 134.768 292.383,134.987 291.332,135.229 291.182 C 135.470 291.033,135.653 290.796,135.634 290.655 C 135.452 289.293,135.668 287.995,136.040 288.225 C 136.354 288.419,136.362 288.277,136.068 287.727 C 135.827 287.277,135.800 286.724,136.002 286.398 C 136.192 286.090,136.258 285.695,136.150 285.519 C 136.042 285.344,136.110 285.200,136.302 285.200 C 136.494 285.200,136.694 284.351,136.748 283.313 C 136.802 282.276,137.022 281.215,137.237 280.955 C 137.452 280.696,137.600 280.330,137.567 280.142 C 137.316 278.748,137.655 276.786,138.100 277.053 C 138.483 277.284,138.495 277.219,138.147 276.777 C 137.808 276.345,137.829 275.698,138.230 274.200 C 138.524 273.100,138.773 271.561,138.782 270.780 C 138.792 269.999,139.025 269.118,139.300 268.821 C 139.707 268.383,139.688 268.345,139.200 268.618 C 138.722 268.885,138.691 268.836,139.045 268.377 C 139.290 268.060,139.514 267.530,139.541 267.200 C 139.816 263.923,140.158 262.051,140.449 262.230 C 140.642 262.350,140.800 261.547,140.800 260.447 C 140.800 259.347,140.996 258.326,141.235 258.178 C 141.474 258.031,141.576 257.552,141.462 257.114 C 141.310 256.534,141.762 255.846,143.127 254.577 C 146.005 251.902,146.316 251.654,146.567 251.833 C 146.695 251.925,146.703 251.873,146.585 251.718 C 146.357 251.420,146.848 250.870,150.856 246.928 C 152.238 245.569,153.511 244.545,153.684 244.652 C 153.858 244.759,154.000 244.598,154.000 244.293 C 154.000 243.559,155.686 242.000,156.479 242.000 C 156.824 242.000,157.206 241.622,157.326 241.160 C 157.466 240.625,157.724 240.429,158.035 240.622 C 158.338 240.809,158.421 240.757,158.253 240.486 C 157.916 239.941,159.573 238.336,160.122 238.676 C 160.343 238.812,160.417 238.752,160.287 238.542 C 159.956 238.006,163.726 234.000,164.561 234.000 C 164.939 234.000,165.156 233.852,165.044 233.671 C 164.796 233.270,166.238 231.971,166.566 232.300 C 166.695 232.428,166.800 232.133,166.800 231.643 C 166.800 231.151,166.979 230.863,167.200 231.000 C 167.420 231.136,167.600 231.057,167.600 230.824 C 167.600 230.591,167.900 230.400,168.267 230.400 C 168.633 230.400,168.812 230.279,168.663 230.130 C 168.515 229.982,168.890 229.533,169.497 229.133 C 170.104 228.733,170.434 228.404,170.231 228.403 C 170.028 228.401,171.256 227.050,172.961 225.400 C 174.665 223.750,176.187 222.400,176.344 222.400 C 176.500 222.400,176.948 221.857,177.341 221.193 C 177.733 220.529,178.177 220.051,178.327 220.129 C 178.695 220.323,179.993 218.926,179.709 218.643 C 179.586 218.520,179.826 218.291,180.243 218.136 C 180.659 217.980,181.237 217.523,181.527 217.120 C 181.817 216.716,182.177 216.461,182.327 216.551 C 182.477 216.642,182.832 216.465,183.116 216.158 C 183.399 215.851,183.511 215.600,183.364 215.600 C 183.217 215.600,183.785 214.891,184.626 214.024 C 185.467 213.158,186.255 212.509,186.377 212.582 C 186.683 212.766,187.601 211.734,187.353 211.486 C 187.243 211.377,187.680 210.913,188.322 210.455 C 188.965 209.998,189.587 209.720,189.705 209.838 C 189.823 209.957,189.893 209.726,189.860 209.327 C 189.822 208.867,190.051 208.619,190.484 208.653 C 190.861 208.682,191.154 208.592,191.137 208.453 C 191.051 207.767,191.235 207.200,191.544 207.200 C 191.733 207.200,192.556 206.570,193.373 205.800 C 194.189 205.030,194.743 204.400,194.604 204.400 C 194.465 204.400,195.217 203.661,196.276 202.757 C 197.334 201.853,198.920 200.322,199.800 199.354 C 200.680 198.387,201.644 197.596,201.943 197.598 C 202.261 197.599,202.390 197.352,202.255 197.000 C 202.125 196.659,202.246 196.400,202.537 196.400 C 202.818 196.400,204.461 195.005,206.189 193.300 C 207.916 191.595,209.175 190.470,208.988 190.800 C 208.696 191.314,208.742 191.322,209.310 190.862 C 209.676 190.566,209.935 190.204,209.887 190.058 C 209.718 189.543,216.054 183.586,216.486 183.853 C 216.727 184.002,216.811 183.942,216.674 183.719 C 216.536 183.497,216.733 183.027,217.112 182.676 C 219.102 180.829,219.553 180.481,219.767 180.633 C 219.895 180.725,219.910 180.680,219.800 180.533 C 219.527 180.169,228.894 170.811,229.287 171.054 C 229.459 171.160,229.603 170.922,229.606 170.524 C 229.611 169.974,229.694 169.929,229.951 170.334 C 230.206 170.736,230.345 170.653,230.518 169.994 C 230.664 169.434,230.922 169.228,231.235 169.422 C 231.538 169.609,231.621 169.557,231.453 169.286 C 231.116 168.741,232.773 167.136,233.322 167.476 C 233.543 167.612,233.608 167.536,233.466 167.307 C 233.325 167.078,233.511 166.645,233.881 166.345 C 234.452 165.882,234.503 165.884,234.215 166.362 C 233.985 166.743,234.025 166.832,234.338 166.638 C 234.592 166.481,234.800 166.107,234.800 165.807 C 234.800 165.074,237.110 162.800,237.854 162.800 C 238.180 162.800,238.335 162.619,238.198 162.397 C 238.061 162.176,238.230 161.887,238.572 161.755 C 238.915 161.624,239.096 161.355,238.974 161.158 C 238.852 160.961,238.952 160.800,239.195 160.800 C 239.439 160.800,240.080 160.324,240.619 159.742 C 241.159 159.159,241.600 158.793,241.600 158.927 C 241.600 159.062,242.017 158.773,242.526 158.286 C 243.035 157.799,243.400 157.290,243.336 157.155 C 243.187 156.838,246.111 154.171,246.475 154.292 C 246.627 154.342,246.865 154.025,247.004 153.586 C 247.144 153.147,247.425 152.892,247.629 153.018 C 247.833 153.144,248.000 152.997,248.000 152.691 C 248.000 152.385,248.430 151.905,248.956 151.624 C 249.482 151.342,250.142 150.682,250.424 150.156 C 250.705 149.630,251.295 149.200,251.734 149.200 C 252.174 149.200,252.424 149.091,252.290 148.957 C 252.015 148.682,255.240 145.179,255.580 145.384 C 255.701 145.457,256.032 145.265,256.316 144.958 C 256.599 144.651,256.701 144.400,256.541 144.400 C 256.381 144.400,256.762 143.866,257.386 143.214 C 258.011 142.562,258.662 142.115,258.832 142.220 C 259.003 142.325,259.257 142.049,259.398 141.606 C 259.539 141.163,259.922 140.800,260.251 140.800 C 260.579 140.800,260.744 140.634,260.619 140.431 C 260.325 139.955,262.586 138.330,263.009 138.712 C 263.185 138.870,263.198 138.774,263.039 138.497 C 262.785 138.056,263.520 136.928,264.219 136.686 C 264.665 136.531,268.021 133.200,267.731 133.200 C 267.575 133.200,267.779 132.957,268.185 132.661 C 268.590 132.364,268.802 131.926,268.655 131.688 C 268.507 131.450,268.525 131.170,268.693 131.067 C 269.619 130.498,268.763 121.166,267.750 120.781 C 267.134 120.547,247.269 120.400,216.241 120.400 C 188.462 120.400,165.649 120.316,165.546 120.212 C 165.254 119.921,165.652 117.185,165.958 117.374 C 166.107 117.466,166.259 116.969,166.296 116.271 C 166.333 115.572,166.439 114.550,166.531 114.000 C 166.623 113.450,166.724 112.100,166.755 111.000 C 166.792 109.724,166.936 109.195,167.153 109.538 C 167.376 109.890,167.570 109.335,167.711 107.938 C 167.830 106.762,168.038 105.350,168.174 104.800 C 168.310 104.250,168.531 102.720,168.666 101.400 C 168.800 100.080,169.044 98.910,169.208 98.800 C 169.371 98.690,169.604 97.700,169.724 96.600 C 169.844 95.500,170.049 93.970,170.178 93.200 C 171.365 86.146,171.804 84.079,172.079 84.249 C 172.256 84.358,172.400 84.267,172.400 84.047 C 172.400 83.827,172.233 83.544,172.029 83.418 C 171.804 83.279,171.814 82.683,172.056 81.895 C 172.274 81.183,172.536 80.060,172.638 79.400 C 172.739 78.740,172.939 77.750,173.082 77.200 C 173.365 76.109,173.410 75.797,173.828 72.100 C 173.984 70.725,174.221 69.599,174.356 69.598 C 174.490 69.597,174.633 68.955,174.673 68.171 C 174.714 67.387,174.902 66.533,175.093 66.273 C 175.283 66.013,175.430 64.962,175.419 63.939 C 175.409 62.915,175.535 62.161,175.700 62.262 C 175.865 62.364,176.000 61.616,176.000 60.600 C 176.000 59.229,176.129 58.830,176.500 59.053 C 176.840 59.257,176.824 59.137,176.451 58.677 C 176.149 58.305,176.075 58.000,176.285 58.000 C 176.496 58.000,176.697 57.285,176.731 56.410 L 176.793 54.821 148.897 54.839 C 133.554 54.850,120.775 54.950,120.500 55.062 M265.867 126.609 C 265.867 126.944,265.448 127.323,264.936 127.452 C 264.424 127.580,264.098 127.835,264.212 128.019 C 264.511 128.504,262.759 130.018,262.239 129.722 C 261.998 129.584,261.935 129.621,262.101 129.803 C 262.476 130.217,261.222 131.661,260.744 131.365 C 260.552 131.246,260.288 131.427,260.157 131.767 C 259.817 132.653,253.302 139.168,253.028 138.895 C 252.903 138.769,252.800 138.897,252.800 139.179 C 252.800 139.720,250.072 142.400,249.522 142.400 C 249.345 142.400,249.200 142.564,249.200 142.765 C 249.200 143.399,244.768 147.627,244.365 147.378 C 244.153 147.248,244.030 147.310,244.090 147.518 C 244.227 147.986,237.799 154.400,237.194 154.400 C 236.951 154.400,236.845 154.549,236.957 154.730 C 237.195 155.115,234.403 157.848,233.923 157.700 C 233.746 157.645,233.600 157.855,233.600 158.166 C 233.600 158.801,230.236 161.911,229.000 162.420 C 228.560 162.601,228.428 162.761,228.707 162.775 C 229.390 162.809,226.484 165.600,225.766 165.600 C 225.455 165.600,225.200 165.870,225.200 166.200 C 225.200 166.530,224.990 166.800,224.733 166.800 C 224.477 166.800,224.365 166.898,224.485 167.018 C 224.744 167.277,219.672 172.400,219.156 172.400 C 218.960 172.400,218.800 172.670,218.800 173.000 C 218.800 173.349,218.437 173.600,217.933 173.600 C 217.457 173.600,217.180 173.714,217.319 173.853 C 217.715 174.248,216.838 175.600,216.186 175.600 C 215.864 175.600,215.600 175.851,215.600 176.157 C 215.600 176.693,214.521 177.395,213.900 177.264 C 213.735 177.229,213.596 177.515,213.592 177.900 C 213.587 178.285,212.940 179.140,212.154 179.800 C 211.367 180.460,209.755 181.945,208.571 183.100 C 207.387 184.255,206.273 185.200,206.097 185.200 C 205.921 185.200,205.512 185.599,205.188 186.086 C 204.565 187.025,197.660 193.932,196.046 195.232 C 195.521 195.654,195.213 196.000,195.360 196.000 C 195.508 196.000,195.217 196.426,194.714 196.947 C 194.211 197.468,193.710 197.865,193.600 197.828 C 193.490 197.791,192.916 198.265,192.326 198.881 C 191.735 199.496,191.312 200.000,191.387 200.000 C 191.461 200.000,190.259 201.215,188.714 202.700 C 187.170 204.185,185.748 205.355,185.553 205.300 C 185.359 205.245,185.200 205.560,185.200 206.000 C 185.200 206.440,185.034 206.800,184.832 206.800 C 184.629 206.800,183.690 207.565,182.744 208.500 C 181.798 209.435,180.870 210.151,180.682 210.090 C 180.494 210.030,180.442 210.144,180.566 210.345 C 180.875 210.844,179.737 211.732,179.208 211.405 C 178.973 211.259,178.830 211.379,178.890 211.670 C 178.951 211.962,178.762 212.151,178.470 212.090 C 178.179 212.030,178.059 212.173,178.205 212.408 C 178.528 212.931,177.647 214.076,177.155 213.772 C 176.960 213.651,176.800 213.821,176.800 214.149 C 176.800 214.478,176.426 214.865,175.970 215.010 C 175.513 215.154,175.232 215.366,175.345 215.479 C 175.638 215.771,173.562 217.624,173.195 217.397 C 173.027 217.293,172.915 217.522,172.945 217.904 C 172.979 218.338,172.738 218.579,172.304 218.545 C 171.922 218.515,171.697 218.633,171.805 218.808 C 171.913 218.983,170.907 220.178,169.568 221.463 C 168.230 222.748,165.044 225.870,162.488 228.400 C 159.932 230.930,157.697 232.955,157.521 232.900 C 157.344 232.845,157.200 232.942,157.200 233.116 C 157.200 233.718,154.263 236.800,153.690 236.800 C 153.343 236.800,153.206 237.038,153.345 237.400 C 153.471 237.730,153.396 238.000,153.177 238.000 C 152.745 238.000,150.945 239.565,148.115 242.400 C 147.127 243.390,146.453 243.930,146.618 243.600 C 146.866 243.102,146.822 243.089,146.359 243.520 C 146.051 243.806,145.792 244.256,145.782 244.520 C 145.772 244.784,145.547 244.955,145.282 244.900 C 145.017 244.845,144.800 245.081,144.800 245.424 C 144.800 245.767,144.616 245.933,144.390 245.794 C 144.165 245.655,144.030 245.703,144.090 245.902 C 144.151 246.101,142.445 248.001,140.300 250.125 C 137.377 253.020,136.400 254.245,136.400 255.017 C 136.400 255.735,136.248 255.956,135.900 255.747 C 135.525 255.522,135.530 255.607,135.919 256.088 C 136.205 256.440,136.279 256.828,136.083 256.949 C 135.887 257.070,135.759 257.708,135.798 258.368 C 135.837 259.027,135.748 259.491,135.599 259.399 C 135.450 259.307,135.297 260.065,135.259 261.082 C 135.220 262.099,135.035 263.127,134.847 263.366 C 134.510 263.793,134.059 266.411,133.834 269.242 C 133.771 270.035,133.610 270.860,133.477 271.076 C 133.343 271.292,133.189 272.128,133.135 272.934 C 133.081 273.740,132.932 274.400,132.803 274.400 C 132.675 274.400,132.515 274.985,132.448 275.700 C 132.271 277.594,132.174 278.130,131.885 278.800 C 131.635 279.383,131.293 282.056,131.231 283.924 C 131.214 284.432,131.060 284.761,130.890 284.655 C 130.719 284.550,130.584 285.349,130.590 286.432 C 130.595 287.514,130.495 288.400,130.367 288.400 C 130.238 288.400,130.124 288.625,130.113 288.900 C 130.102 289.175,129.976 289.940,129.832 290.600 C 129.688 291.260,129.501 292.520,129.416 293.400 C 129.330 294.280,128.965 296.293,128.604 297.872 C 128.244 299.452,128.005 301.432,128.074 302.272 L 128.200 303.800 130.800 303.921 C 132.230 303.988,133.538 304.180,133.707 304.348 C 133.876 304.517,134.901 304.541,135.985 304.402 C 137.068 304.263,137.865 304.294,137.756 304.471 C 137.647 304.648,145.577 304.789,155.378 304.783 C 165.180 304.778,173.200 304.618,173.200 304.429 C 173.200 304.239,173.829 304.226,174.597 304.399 C 175.403 304.581,175.901 304.563,175.774 304.357 C 175.652 304.161,176.868 303.985,178.476 303.967 C 180.084 303.948,181.760 303.879,182.200 303.812 C 182.640 303.745,183.669 303.595,184.487 303.477 C 185.304 303.360,186.159 303.149,186.387 303.008 C 186.614 302.868,186.800 302.965,186.800 303.225 C 186.800 303.580,186.948 303.575,187.393 303.206 C 187.719 302.935,188.709 302.698,189.593 302.678 C 190.477 302.659,191.200 302.517,191.200 302.362 C 191.200 302.207,191.965 301.987,192.900 301.873 C 193.835 301.758,195.230 301.544,196.000 301.397 C 196.770 301.250,197.625 301.115,197.900 301.098 C 198.175 301.081,198.400 300.947,198.400 300.800 C 198.400 300.654,198.805 300.569,199.300 300.612 C 199.795 300.655,200.389 300.543,200.619 300.363 C 200.850 300.183,201.705 299.991,202.519 299.936 C 203.334 299.881,204.000 299.672,204.000 299.472 C 204.000 299.271,204.351 299.199,204.781 299.311 C 205.210 299.423,205.615 299.363,205.681 299.178 C 205.746 298.993,206.638 298.787,207.662 298.721 C 208.685 298.654,209.452 298.485,209.366 298.345 C 209.206 298.087,211.211 297.587,212.500 297.563 C 212.885 297.556,213.200 297.381,213.200 297.175 C 213.200 296.969,213.639 296.800,214.176 296.800 C 214.713 296.800,215.273 296.605,215.420 296.368 C 215.567 296.130,216.118 296.043,216.644 296.175 C 217.183 296.311,217.600 296.238,217.600 296.008 C 217.600 295.783,217.791 295.600,218.024 295.600 C 218.257 295.600,218.316 295.825,218.155 296.100 C 217.994 296.375,218.242 296.267,218.706 295.861 C 219.183 295.443,219.761 295.253,220.037 295.423 C 220.329 295.603,220.420 295.557,220.266 295.307 C 220.109 295.053,220.708 294.785,221.795 294.622 C 222.777 294.474,223.686 294.184,223.814 293.977 C 224.114 293.492,225.200 293.485,225.200 293.968 C 225.200 294.171,224.662 294.455,224.005 294.599 C 223.347 294.743,222.689 295.056,222.543 295.293 C 222.369 295.574,222.472 295.606,222.838 295.385 C 223.317 295.097,223.319 295.147,222.851 295.723 C 222.549 296.095,222.064 296.400,221.774 296.400 C 221.483 296.400,220.994 296.759,220.687 297.197 C 220.380 297.636,220.009 297.876,219.864 297.731 C 219.719 297.586,219.600 297.677,219.600 297.933 C 219.600 298.190,219.329 298.400,218.997 298.400 C 218.666 298.400,217.999 298.855,217.515 299.411 C 217.032 299.968,216.403 300.333,216.118 300.224 C 215.833 300.115,215.600 300.289,215.600 300.613 C 215.600 300.936,215.428 301.200,215.218 301.200 C 215.008 301.200,214.378 301.658,213.818 302.218 C 213.258 302.778,212.800 303.131,212.800 303.002 C 212.800 302.874,212.575 302.953,212.300 303.178 C 210.112 304.971,209.234 305.600,208.918 305.600 C 208.717 305.600,207.978 306.161,207.276 306.847 C 206.574 307.534,206.000 307.994,206.000 307.870 C 206.000 307.746,205.420 308.175,204.711 308.823 C 204.002 309.470,202.967 310.003,202.411 310.006 C 201.611 310.011,201.525 310.093,202.000 310.400 C 202.400 310.658,202.433 310.790,202.100 310.794 C 201.825 310.797,201.253 311.115,200.829 311.500 C 199.328 312.862,198.883 313.149,198.643 312.909 C 198.509 312.776,198.400 312.923,198.400 313.236 C 198.400 313.549,197.879 314.035,197.243 314.317 C 196.606 314.599,195.639 315.228,195.094 315.715 C 193.207 317.401,192.482 317.920,191.637 318.188 C 191.170 318.336,190.892 318.625,191.018 318.829 C 191.144 319.033,190.994 319.200,190.686 319.200 C 190.377 319.200,189.797 319.561,189.398 320.002 C 188.998 320.444,188.595 320.729,188.502 320.636 C 188.409 320.543,188.015 320.767,187.627 321.133 C 186.121 322.554,185.174 323.191,184.209 323.434 C 183.657 323.572,183.305 323.846,183.426 324.043 C 183.548 324.239,183.356 324.400,183.000 324.400 C 182.644 324.400,182.464 324.580,182.600 324.800 C 182.736 325.020,182.653 325.200,182.416 325.200 C 182.179 325.200,180.953 326.010,179.693 327.000 C 178.432 327.990,177.097 328.800,176.727 328.800 C 176.357 328.800,175.940 329.160,175.800 329.600 C 175.660 330.040,175.315 330.400,175.031 330.400 C 174.748 330.400,174.072 330.805,173.528 331.300 C 171.877 332.802,168.717 334.933,168.142 334.933 C 167.844 334.933,167.681 335.015,167.781 335.114 C 168.078 335.411,166.905 336.400,166.256 336.400 C 165.925 336.400,165.540 336.760,165.400 337.200 C 165.260 337.640,164.978 338.000,164.773 338.000 C 164.145 338.000,163.871 338.165,162.915 339.122 C 162.408 339.628,161.834 339.944,161.639 339.824 C 161.443 339.703,161.180 339.875,161.053 340.206 C 160.850 340.736,155.680 340.806,117.480 340.796 L 74.138 340.786 74.694 338.293 C 75.430 334.993,75.567 334.267,76.032 331.200 C 76.405 328.742,76.992 325.013,77.356 322.800 C 77.447 322.250,77.554 321.800,77.594 321.800 C 77.634 321.800,77.719 321.440,77.783 321.000 C 78.001 319.501,78.344 318.014,78.549 317.682 C 78.662 317.500,78.797 316.408,78.849 315.255 C 78.902 314.101,79.054 313.090,79.188 313.008 C 79.321 312.925,79.409 312.214,79.383 311.429 C 79.357 310.643,79.485 310.000,79.668 310.000 C 79.851 310.000,80.000 309.359,80.000 308.576 C 80.000 307.793,80.143 307.241,80.317 307.349 C 80.491 307.456,80.618 306.702,80.600 305.672 C 80.581 304.642,80.696 303.707,80.855 303.594 C 81.013 303.481,81.201 302.284,81.271 300.934 C 81.342 299.584,81.510 298.547,81.645 298.629 C 81.780 298.712,82.023 297.839,82.184 296.690 C 82.345 295.540,82.567 294.060,82.677 293.400 C 82.788 292.740,82.967 291.345,83.077 290.300 C 83.187 289.255,83.416 288.486,83.585 288.591 C 83.755 288.696,83.893 287.866,83.893 286.747 C 83.893 285.628,84.057 284.598,84.257 284.457 C 84.457 284.315,84.612 283.345,84.601 282.300 C 84.590 281.255,84.702 280.400,84.849 280.400 C 84.996 280.400,85.224 279.635,85.355 278.700 C 85.487 277.765,85.671 276.640,85.764 276.200 C 85.857 275.760,85.951 274.950,85.973 274.400 C 85.998 273.755,86.123 273.575,86.326 273.894 C 86.498 274.165,86.598 273.490,86.548 272.394 C 86.497 271.297,86.585 270.400,86.743 270.400 C 86.901 270.400,87.088 269.815,87.159 269.100 C 87.333 267.347,87.448 266.710,87.715 266.000 C 87.840 265.670,88.049 264.153,88.181 262.628 C 88.313 261.104,88.595 259.647,88.807 259.392 C 89.019 259.136,89.104 258.838,88.996 258.730 C 88.888 258.621,88.985 257.648,89.212 256.566 C 89.439 255.485,89.682 253.970,89.752 253.200 C 89.921 251.339,90.446 248.698,90.746 248.200 C 90.879 247.980,91.013 247.485,91.044 247.100 C 91.075 246.715,91.123 246.154,91.150 245.854 C 91.217 245.122,93.252 242.872,93.984 242.721 C 94.737 242.565,95.559 241.872,95.367 241.553 C 95.286 241.418,95.606 240.968,96.078 240.553 C 96.551 240.139,96.789 240.053,96.607 240.362 C 96.377 240.753,96.425 240.832,96.765 240.621 C 97.034 240.455,97.159 240.069,97.042 239.764 C 96.925 239.459,96.957 239.229,97.114 239.252 C 97.933 239.374,98.400 239.137,98.400 238.600 C 98.400 238.270,98.542 238.000,98.717 238.000 C 98.891 238.000,99.701 237.370,100.517 236.601 C 101.332 235.831,102.014 235.426,102.032 235.701 C 102.049 235.975,102.244 235.705,102.465 235.100 C 102.686 234.495,103.115 234.000,103.419 234.000 C 103.723 234.000,104.165 233.640,104.400 233.200 C 104.635 232.760,105.080 232.400,105.387 232.400 C 105.695 232.400,106.057 232.049,106.194 231.620 C 106.330 231.192,106.792 230.730,107.220 230.594 C 107.649 230.457,108.000 230.099,108.000 229.796 C 108.000 229.459,108.314 229.306,108.811 229.402 C 109.308 229.498,109.520 229.395,109.359 229.134 C 109.215 228.901,109.327 228.569,109.608 228.395 C 110.526 227.828,113.247 225.442,115.419 223.300 C 116.590 222.145,117.830 221.200,118.174 221.200 C 118.518 221.200,118.755 221.053,118.700 220.874 C 118.577 220.473,120.924 218.074,121.596 217.915 C 122.310 217.747,125.083 215.052,124.905 214.700 C 124.821 214.535,124.911 214.400,125.105 214.400 C 125.298 214.400,126.267 213.635,127.256 212.700 C 130.643 209.500,133.677 207.000,134.047 207.103 C 134.251 207.160,134.588 206.800,134.797 206.303 C 135.006 205.806,135.641 205.040,136.208 204.600 C 136.776 204.160,138.198 202.900,139.369 201.800 C 142.188 199.151,143.487 198.053,145.060 196.985 C 145.778 196.498,146.285 196.019,146.187 195.920 C 146.089 195.822,146.574 195.215,147.266 194.571 C 147.958 193.927,148.392 193.670,148.231 194.000 C 148.071 194.330,148.290 194.203,148.720 193.717 C 149.149 193.231,149.613 192.946,149.750 193.084 C 149.888 193.221,150.000 193.133,150.000 192.887 C 150.000 192.249,151.794 190.400,152.413 190.400 C 152.699 190.400,152.814 190.281,152.669 190.136 C 152.524 189.990,152.788 189.675,153.257 189.436 C 153.727 189.196,154.071 188.843,154.023 188.651 C 153.975 188.459,154.639 187.829,155.500 187.251 C 156.360 186.673,158.091 185.158,159.347 183.885 C 160.602 182.612,161.800 181.677,162.010 181.806 C 162.220 181.936,162.284 181.764,162.153 181.421 C 162.002 181.027,162.137 180.800,162.524 180.800 C 162.859 180.800,163.193 180.633,163.267 180.430 C 163.340 180.226,163.670 180.001,164.000 179.930 C 164.330 179.858,164.708 179.530,164.840 179.200 C 164.972 178.870,165.313 178.600,165.597 178.600 C 165.881 178.600,166.312 178.247,166.556 177.816 C 166.800 177.385,167.445 176.666,167.988 176.218 C 168.532 175.770,169.329 174.997,169.760 174.502 C 170.192 174.006,170.782 173.600,171.072 173.600 C 171.362 173.600,171.600 173.465,171.600 173.300 C 171.601 172.806,173.460 170.800,173.918 170.800 C 174.151 170.800,174.696 170.350,175.129 169.800 C 175.561 169.250,176.125 168.800,176.381 168.800 C 176.637 168.800,176.736 168.620,176.600 168.400 C 176.464 168.180,176.555 168.000,176.802 168.000 C 177.049 168.000,177.673 167.500,178.187 166.888 C 178.702 166.277,179.553 165.546,180.080 165.264 C 181.012 164.766,182.313 163.148,181.704 163.246 C 179.517 163.597,105.962 163.084,106.600 162.722 C 107.040 162.473,107.490 162.163,107.600 162.034 C 107.710 161.905,108.475 161.457,109.300 161.037 C 110.125 160.617,110.800 160.122,110.800 159.937 C 110.800 159.752,111.158 159.600,111.597 159.600 C 112.035 159.600,112.607 159.258,112.868 158.840 C 113.139 158.406,113.598 158.178,113.937 158.308 C 114.302 158.448,114.427 158.368,114.262 158.101 C 114.012 157.695,116.134 156.926,116.930 157.134 C 117.111 157.181,117.145 157.035,117.006 156.810 C 116.867 156.584,117.078 156.397,117.476 156.394 C 118.046 156.389,118.082 156.313,117.647 156.037 C 117.240 155.780,117.425 155.614,118.347 155.412 C 119.036 155.260,119.600 154.971,119.600 154.768 C 119.600 154.566,119.870 154.400,120.200 154.400 C 120.530 154.400,120.800 154.201,120.800 153.957 C 120.800 153.714,121.079 153.622,121.421 153.753 C 121.777 153.889,121.937 153.822,121.797 153.595 C 121.663 153.378,121.934 153.200,122.400 153.200 C 122.866 153.200,123.138 153.023,123.004 152.807 C 122.871 152.591,123.490 152.099,124.381 151.713 C 125.271 151.327,126.000 150.888,126.000 150.737 C 126.000 150.587,126.549 150.343,127.219 150.196 C 127.890 150.049,128.653 149.584,128.915 149.164 C 129.178 148.744,129.709 148.400,130.096 148.400 C 130.483 148.400,130.800 148.249,130.800 148.064 C 130.800 147.643,132.837 146.634,133.470 146.741 C 133.728 146.785,134.049 146.474,134.184 146.050 C 134.404 145.356,136.093 144.553,136.930 144.744 C 137.111 144.786,137.145 144.635,137.006 144.410 C 136.867 144.184,137.033 144.000,137.376 144.000 C 137.719 144.000,138.000 143.824,138.000 143.610 C 138.000 143.247,140.995 141.682,141.730 141.662 C 141.912 141.657,142.364 141.326,142.735 140.926 C 143.688 139.899,145.162 139.129,145.626 139.416 C 145.843 139.550,145.970 139.432,145.910 139.155 C 145.783 138.571,148.404 137.171,149.000 137.505 C 149.220 137.628,149.274 137.588,149.119 137.417 C 148.804 137.067,149.725 136.000,150.343 136.000 C 150.563 136.000,151.026 135.717,151.371 135.371 C 151.847 134.896,152.006 134.872,152.025 135.271 C 152.039 135.562,152.213 135.395,152.412 134.900 C 152.611 134.405,153.118 134.000,153.538 134.000 C 153.958 134.000,154.524 133.732,154.796 133.404 C 155.068 133.077,155.450 132.907,155.645 133.028 C 155.840 133.149,156.000 132.983,156.000 132.661 C 156.000 132.258,156.269 132.145,156.863 132.300 C 157.454 132.455,157.635 132.380,157.439 132.063 C 157.269 131.788,157.406 131.600,157.776 131.600 C 158.119 131.600,158.400 131.423,158.400 131.208 C 158.400 130.992,158.850 130.702,159.400 130.564 C 159.950 130.426,160.400 130.170,160.400 129.995 C 160.400 129.717,162.849 128.204,166.000 126.535 C 167.616 125.679,265.867 125.752,265.867 126.609 M268.700 162.865 C 267.691 163.233,267.409 163.647,267.563 164.530 C 267.594 164.711,267.460 164.761,267.266 164.641 C 266.743 164.318,259.062 171.862,258.995 172.764 C 258.964 173.187,259.708 174.404,260.648 175.467 C 261.588 176.530,262.855 178.390,263.462 179.600 C 264.069 180.810,264.663 181.890,264.783 182.000 C 265.363 182.534,266.000 184.077,265.784 184.426 C 265.650 184.643,265.689 184.794,265.870 184.763 C 266.631 184.630,267.200 184.828,267.200 185.224 C 267.200 185.457,266.996 185.521,266.746 185.367 C 266.496 185.212,266.697 185.634,267.193 186.305 C 267.689 186.975,267.964 187.735,267.805 187.993 C 267.644 188.253,267.872 188.793,268.317 189.208 C 269.100 189.938,269.123 189.937,269.322 189.178 C 269.434 188.750,269.362 188.400,269.163 188.400 C 268.425 188.400,268.715 163.957,269.462 163.131 C 270.205 162.310,270.213 162.312,268.700 162.865 " stroke="none" fill="#1cc3e4" fill-rule="evenodd"></path><path id="path1" d="M297.200 135.000 C 297.200 135.330,297.001 135.600,296.758 135.600 C 296.515 135.600,294.975 136.950,293.336 138.600 C 291.696 140.250,290.204 141.600,290.020 141.600 C 289.677 141.600,289.033 142.793,289.124 143.262 C 289.152 143.406,288.865 143.766,288.487 144.062 C 287.854 144.558,287.847 144.539,288.400 143.819 C 288.995 143.044,288.991 143.044,287.950 143.816 C 287.373 144.245,286.981 144.805,287.079 145.062 C 287.177 145.318,286.840 145.655,286.329 145.811 C 285.199 146.156,283.998 147.165,284.006 147.762 C 284.009 148.003,284.169 147.952,284.361 147.649 C 284.553 147.346,284.909 147.220,285.151 147.370 C 285.437 147.546,285.498 147.400,285.326 146.951 C 285.129 146.438,285.220 146.322,285.682 146.499 C 286.023 146.630,286.506 146.534,286.754 146.286 C 287.435 145.605,287.382 304.681,286.701 305.566 C 286.050 306.413,287.709 305.046,290.058 302.800 C 291.093 301.810,292.476 300.550,293.131 300.000 C 293.787 299.450,294.240 298.865,294.138 298.700 C 294.036 298.535,294.116 298.400,294.315 298.400 C 295.075 298.400,299.274 293.738,299.449 292.700 C 299.477 292.535,299.522 292.198,299.550 291.951 C 299.585 291.639,299.786 291.656,300.209 292.008 C 300.719 292.431,300.777 292.405,300.564 291.851 C 300.425 291.488,300.510 290.950,300.753 290.656 C 301.265 290.040,301.611 137.146,301.100 137.462 C 300.935 137.564,300.800 137.356,300.800 137.000 C 300.800 136.644,300.665 136.435,300.500 136.534 C 300.335 136.634,299.968 136.465,299.684 136.158 C 299.401 135.851,299.288 135.600,299.433 135.600 C 299.579 135.600,299.474 135.330,299.200 135.000 C 298.926 134.670,298.364 134.400,297.951 134.400 C 297.538 134.400,297.200 134.670,297.200 135.000 " stroke="none" fill="#0cacdc" fill-rule="evenodd"></path><path id="path2" d="M299.200 135.000 C 299.474 135.330,299.579 135.600,299.433 135.600 C 299.288 135.600,299.401 135.851,299.684 136.158 C 299.968 136.465,300.335 136.634,300.500 136.534 C 300.665 136.435,300.800 136.644,300.800 137.000 C 300.800 137.356,300.935 137.564,301.100 137.462 C 301.518 137.203,301.071 289.992,300.650 291.096 C 300.463 291.588,300.168 291.904,299.996 291.798 C 299.825 291.692,299.586 291.859,299.467 292.169 C 299.348 292.480,299.518 292.837,299.846 292.962 C 300.174 293.088,300.344 293.033,300.225 292.841 C 300.106 292.648,300.275 292.270,300.600 292.000 C 300.925 291.730,301.093 291.350,300.972 291.155 C 300.851 290.960,301.033 290.800,301.376 290.800 C 301.719 290.800,302.000 290.519,302.000 290.176 C 302.000 289.833,302.165 289.655,302.367 289.779 C 302.568 289.904,303.243 289.207,303.867 288.231 C 304.490 287.254,305.399 286.236,305.886 285.968 C 306.374 285.699,306.709 285.372,306.631 285.240 C 306.397 284.843,309.464 280.397,309.764 280.698 C 309.917 280.850,309.912 280.635,309.752 280.218 C 309.522 279.619,309.601 279.515,310.131 279.718 C 310.632 279.911,310.801 279.752,310.802 279.087 C 310.804 278.599,310.803 249.240,310.800 213.844 C 310.797 168.606,310.923 149.334,311.224 148.971 C 311.542 148.588,311.438 148.238,310.827 147.627 C 310.335 147.135,310.203 146.798,310.500 146.794 C 310.866 146.789,310.854 146.695,310.455 146.442 C 309.994 146.151,309.994 146.057,310.455 145.844 C 310.755 145.705,310.602 145.665,310.115 145.754 C 309.233 145.917,308.185 145.148,308.653 144.681 C 308.788 144.546,308.291 143.782,307.549 142.983 C 303.467 138.588,302.489 137.645,302.256 137.877 C 302.115 138.018,302.000 137.929,302.000 137.680 C 302.000 137.431,301.364 136.591,300.587 135.813 C 299.176 134.403,298.257 133.864,299.200 135.000 " stroke="none" fill="#0ca4dc" fill-rule="evenodd"></path><path id="path3" d="M134.329 54.700 C 142.100 54.761,154.700 54.761,162.329 54.700 C 169.958 54.639,163.600 54.589,148.200 54.589 C 132.800 54.589,126.558 54.639,134.329 54.700 M302.800 137.772 C 302.800 138.214,305.642 140.892,305.869 140.664 C 306.012 140.522,305.478 139.774,304.684 139.003 C 303.345 137.702,302.800 137.346,302.800 137.772 M306.831 142.301 C 307.364 142.957,307.849 143.454,307.909 143.405 C 308.196 143.169,307.494 142.126,306.723 141.645 C 305.921 141.144,305.929 141.189,306.831 142.301 M308.589 144.346 C 308.616 144.714,308.785 145.252,308.964 145.542 C 309.401 146.249,310.101 145.527,309.782 144.698 C 309.438 143.802,308.529 143.534,308.589 144.346 M285.400 145.676 L 284.600 146.504 285.478 146.050 C 286.402 145.572,287.074 144.783,286.524 144.824 C 286.346 144.837,285.840 145.220,285.400 145.676 M253.578 147.500 L 252.200 149.000 253.700 147.622 C 255.096 146.338,255.384 146.000,255.078 146.000 C 255.012 146.000,254.337 146.675,253.578 147.500 M310.827 147.627 C 311.433 148.233,311.540 148.590,311.229 148.965 C 310.902 149.360,310.612 236.304,310.798 278.749 C 310.800 279.192,310.916 279.201,311.400 278.800 C 311.730 278.526,312.000 278.073,312.000 277.794 C 312.000 277.514,312.270 277.182,312.600 277.055 C 312.930 276.929,313.200 276.459,313.200 276.013 C 313.200 275.566,313.391 275.200,313.624 275.200 C 313.857 275.200,313.936 275.020,313.800 274.800 C 313.664 274.580,313.854 274.400,314.223 274.400 C 314.697 274.400,314.832 274.165,314.684 273.599 C 314.569 273.159,314.638 272.900,314.837 273.023 C 315.037 273.146,315.200 273.033,315.200 272.771 C 315.200 272.508,315.534 272.003,315.943 271.647 C 316.351 271.291,316.826 270.550,316.997 270.000 C 317.168 269.450,317.428 268.910,317.575 268.800 C 317.946 268.522,319.200 265.775,319.200 265.240 C 319.200 264.998,319.366 264.800,319.568 264.800 C 319.771 264.800,320.055 264.260,320.200 263.600 C 320.345 262.940,320.629 262.400,320.832 262.400 C 321.034 262.400,321.200 262.040,321.200 261.600 C 321.200 261.160,321.372 260.800,321.582 260.800 C 321.792 260.800,322.082 260.172,322.226 259.404 C 322.370 258.635,322.648 258.106,322.844 258.227 C 323.040 258.348,323.200 257.997,323.200 257.447 C 323.200 256.897,323.380 256.336,323.600 256.200 C 323.820 256.064,324.000 255.676,324.000 255.337 C 324.000 254.998,324.250 254.154,324.556 253.460 C 325.790 250.664,326.400 248.723,326.400 247.592 C 326.400 246.936,326.569 246.400,326.776 246.400 C 326.982 246.400,327.276 245.140,327.427 243.600 C 327.579 242.060,327.860 240.800,328.052 240.800 C 328.243 240.800,328.400 240.110,328.400 239.267 C 328.400 238.423,328.535 237.600,328.700 237.437 C 329.062 237.080,329.977 229.228,330.255 224.100 C 330.365 222.065,330.623 220.400,330.827 220.400 C 331.347 220.400,331.320 202.121,330.800 201.800 C 330.580 201.664,330.400 200.044,330.400 198.200 C 330.400 196.356,330.243 194.750,330.052 194.632 C 329.861 194.514,329.576 192.613,329.420 190.409 C 329.264 188.204,328.970 186.400,328.768 186.400 C 328.566 186.400,328.400 185.680,328.400 184.800 C 328.400 183.920,328.238 183.200,328.039 183.200 C 327.841 183.200,327.549 182.075,327.391 180.700 C 327.233 179.325,326.987 178.110,326.845 178.000 C 326.571 177.788,325.688 174.943,325.326 173.100 C 325.207 172.495,324.970 172.000,324.800 172.000 C 324.630 172.000,324.407 171.505,324.305 170.900 C 324.051 169.396,323.837 168.637,323.600 168.400 C 323.117 167.917,322.000 165.626,322.000 165.118 C 322.000 164.371,321.073 162.407,320.718 162.403 C 320.563 162.401,320.318 161.770,320.174 161.000 C 320.029 160.230,319.786 159.600,319.632 159.600 C 319.479 159.600,319.035 158.878,318.646 157.996 C 318.257 157.113,317.794 156.480,317.618 156.589 C 317.442 156.698,317.185 156.226,317.048 155.540 C 316.911 154.854,316.465 154.002,316.056 153.646 C 315.648 153.291,315.186 152.592,315.028 152.094 C 314.871 151.596,314.575 151.292,314.371 151.418 C 314.167 151.544,314.000 151.277,314.000 150.824 C 314.000 150.371,313.832 150.000,313.627 150.000 C 313.422 150.000,313.134 149.621,312.986 149.157 C 312.590 147.910,311.519 146.800,310.711 146.800 C 310.067 146.800,310.078 146.878,310.827 147.627 M227.300 164.022 C 226.585 164.692,226.000 165.357,226.000 165.499 C 226.000 165.641,226.630 165.146,227.400 164.400 C 228.681 163.159,228.975 162.797,228.700 162.802 C 228.645 162.803,228.015 163.352,227.300 164.022 M223.357 167.822 C 222.673 168.580,222.236 169.200,222.387 169.200 C 222.688 169.200,224.116 167.691,224.564 166.900 C 225.020 166.094,224.683 166.352,223.357 167.822 M182.181 208.500 L 180.600 210.200 182.300 208.619 C 183.881 207.148,184.184 206.800,183.881 206.800 C 183.816 206.800,183.051 207.565,182.181 208.500 M184.975 214.100 L 183.800 215.400 185.100 214.225 C 186.312 213.130,186.584 212.800,186.275 212.800 C 186.206 212.800,185.621 213.385,184.975 214.100 M309.600 279.940 C 309.600 280.127,309.063 281.072,308.407 282.040 C 307.042 284.055,306.819 284.960,308.000 283.692 C 308.440 283.220,308.800 282.723,308.800 282.588 C 308.800 282.453,309.072 282.071,309.404 281.739 C 309.736 281.407,309.905 280.970,309.780 280.768 C 309.655 280.565,309.844 280.400,310.200 280.400 C 310.556 280.400,310.736 280.220,310.600 280.000 C 310.299 279.512,309.600 279.470,309.600 279.940 M305.271 286.420 C 304.466 287.170,304.199 287.600,304.539 287.600 C 304.883 287.600,306.507 285.974,306.335 285.802 C 306.229 285.695,305.750 285.974,305.271 286.420 " stroke="none" fill="#049cd4" fill-rule="evenodd"></path><path id="path4" d="M267.876 120.804 C 268.767 121.163,269.514 130.332,268.717 131.125 C 268.561 131.280,268.603 131.675,268.811 132.003 C 269.131 132.510,269.189 132.494,269.194 131.900 C 269.197 131.515,269.425 131.245,269.700 131.300 C 269.975 131.355,270.151 131.162,270.090 130.870 C 270.030 130.579,270.139 130.439,270.333 130.559 C 270.528 130.679,271.595 129.837,272.705 128.689 C 273.815 127.540,275.729 125.700,276.958 124.600 C 278.188 123.500,279.195 122.375,279.197 122.100 C 279.199 121.825,279.470 121.600,279.800 121.600 C 280.592 121.600,280.570 120.951,279.767 120.643 C 279.419 120.509,276.404 120.411,273.067 120.425 C 269.143 120.442,267.309 120.575,267.876 120.804 M191.500 126.300 C 205.195 126.358,227.605 126.358,241.300 126.300 C 254.995 126.242,243.790 126.194,216.400 126.194 C 189.010 126.194,177.805 126.242,191.500 126.300 M263.400 137.347 C 262.052 138.909,261.891 139.343,263.012 138.400 C 263.665 137.850,264.257 137.373,264.327 137.340 C 264.396 137.307,264.306 137.191,264.127 137.082 C 263.947 136.973,263.620 137.092,263.400 137.347 M257.375 143.265 C 256.202 144.528,256.202 144.529,257.283 143.765 C 257.879 143.344,258.458 142.775,258.570 142.500 C 258.881 141.741,258.658 141.884,257.375 143.265 M245.200 146.672 C 244.313 147.610,244.297 147.678,245.053 147.276 C 245.522 147.026,246.011 146.547,246.140 146.211 C 246.454 145.394,246.368 145.436,245.200 146.672 M286.611 146.383 C 286.481 146.593,286.079 146.652,285.718 146.513 C 285.218 146.321,285.125 146.426,285.326 146.951 C 285.476 147.343,285.428 147.541,285.214 147.409 C 284.763 147.130,284.131 147.634,279.710 151.800 C 272.474 158.620,268.328 162.912,269.197 162.685 C 270.011 162.472,270.028 162.506,269.437 163.159 C 268.712 163.960,268.446 188.400,269.163 188.400 C 269.362 188.400,269.427 188.775,269.307 189.234 C 269.141 189.868,269.008 189.940,268.751 189.534 C 268.520 189.170,268.410 189.152,268.406 189.476 C 268.403 189.738,268.580 190.064,268.800 190.200 C 269.020 190.336,269.200 190.816,269.200 191.266 C 269.200 191.881,269.374 192.019,269.900 191.819 C 270.461 191.605,270.501 191.652,270.100 192.056 C 269.383 192.779,269.423 193.845,270.145 193.245 C 270.584 192.881,270.669 192.989,270.581 193.796 C 270.520 194.353,270.678 194.803,270.935 194.806 C 271.244 194.810,271.225 194.924,270.878 195.143 C 270.451 195.414,270.459 195.758,270.921 197.037 C 271.997 200.016,272.348 201.412,272.623 203.800 C 272.775 205.120,273.102 206.460,273.349 206.777 C 273.710 207.239,273.681 207.283,273.200 207.000 C 272.705 206.708,272.686 206.752,273.090 207.252 C 273.755 208.074,273.857 225.408,273.202 226.198 C 272.954 226.496,272.793 226.979,272.844 227.270 C 272.985 228.081,272.392 231.699,271.971 232.600 C 271.765 233.040,271.552 234.057,271.498 234.861 C 271.444 235.665,271.281 236.249,271.135 236.159 C 270.990 236.070,270.743 236.755,270.586 237.683 C 270.301 239.370,270.161 239.768,269.223 241.558 C 268.800 242.364,268.812 242.481,269.294 242.296 C 269.618 242.172,269.867 242.313,269.867 242.621 C 269.867 242.920,269.753 243.095,269.614 243.009 C 268.958 242.603,268.208 243.590,268.642 244.287 C 268.987 244.839,268.942 245.105,268.442 245.485 C 268.022 245.805,267.973 245.979,268.300 245.987 C 268.696 245.997,268.800 253.469,268.800 281.976 C 268.800 306.640,268.932 318.034,269.219 318.212 C 269.502 318.386,269.469 318.686,269.119 319.128 C 268.834 319.489,269.346 319.203,270.258 318.492 C 271.169 317.782,272.114 317.200,272.358 317.200 C 272.601 317.200,272.800 317.020,272.800 316.800 C 272.800 316.580,273.070 316.400,273.400 316.400 C 273.730 316.400,274.000 316.261,274.000 316.091 C 274.000 315.921,274.619 315.448,275.377 315.041 C 276.134 314.633,276.848 314.052,276.964 313.750 C 277.080 313.447,277.359 313.200,277.584 313.200 C 278.002 313.200,279.290 312.195,281.174 310.400 C 281.751 309.850,282.355 309.357,282.516 309.305 C 282.847 309.199,285.336 307.002,286.454 305.831 C 287.146 305.106,287.716 146.000,287.026 146.000 C 286.928 146.000,286.741 146.172,286.611 146.383 M124.093 151.780 C 122.839 152.472,122.462 152.901,123.412 152.555 C 124.398 152.195,125.914 151.186,125.389 151.239 C 125.175 151.261,124.592 151.504,124.093 151.780 M243.970 156.253 C 243.045 157.256,243.041 157.280,243.892 156.761 C 244.383 156.462,244.872 155.988,244.980 155.709 C 245.266 154.962,245.052 155.077,243.970 156.253 M101.756 157.371 C 101.635 157.685,101.604 158.360,101.686 158.871 C 101.795 159.554,101.888 159.404,102.037 158.300 C 102.247 156.747,102.136 156.381,101.756 157.371 M235.879 164.093 C 235.263 164.752,234.836 165.369,234.930 165.464 C 235.100 165.634,237.600 163.298,237.600 162.969 C 237.600 162.542,236.905 162.996,235.879 164.093 M178.967 166.245 C 178.105 167.039,177.758 167.444,178.195 167.145 C 179.303 166.386,181.040 164.800,180.763 164.800 C 180.636 164.800,179.828 165.450,178.967 166.245 M172.982 171.315 C 171.989 172.468,171.959 172.920,172.935 172.030 C 173.521 171.497,174.000 171.002,174.000 170.930 C 174.000 170.628,173.369 170.867,172.982 171.315 M219.762 171.658 C 219.004 172.512,219.005 172.514,219.900 172.044 C 220.395 171.784,220.800 171.398,220.800 171.186 C 220.800 170.618,220.609 170.705,219.762 171.658 M225.978 173.900 L 224.600 175.400 226.100 174.022 C 227.496 172.738,227.784 172.400,227.478 172.400 C 227.412 172.400,226.737 173.075,225.978 173.900 M216.600 174.800 C 216.202 175.240,216.078 175.600,216.324 175.600 C 216.570 175.600,216.965 175.240,217.200 174.800 C 217.435 174.360,217.560 174.000,217.476 174.000 C 217.392 174.000,216.998 174.360,216.600 174.800 M261.200 176.714 C 261.200 176.981,261.368 177.200,261.573 177.200 C 261.778 177.200,262.051 177.515,262.180 177.900 C 262.308 178.285,262.788 179.050,263.246 179.600 C 264.013 180.520,264.007 180.472,263.178 179.000 C 262.071 177.035,261.200 176.028,261.200 176.714 M211.800 179.443 C 211.140 180.195,210.525 180.898,210.433 181.005 C 210.342 181.112,210.374 181.200,210.505 181.200 C 210.833 181.200,213.600 178.565,213.600 178.253 C 213.600 177.706,212.946 178.139,211.800 179.443 M161.400 181.715 C 159.723 183.493,159.525 184.129,161.125 182.600 C 162.046 181.720,162.799 180.955,162.800 180.900 C 162.801 180.571,162.087 180.986,161.400 181.715 M155.000 187.600 C 154.340 188.037,154.033 188.396,154.317 188.397 C 154.601 188.399,155.220 188.040,155.692 187.600 C 156.782 186.585,156.532 186.585,155.000 187.600 M140.792 194.210 C 140.514 194.545,140.366 194.900,140.464 194.998 C 140.562 195.096,140.946 194.821,141.317 194.388 C 141.689 193.955,141.836 193.600,141.645 193.600 C 141.454 193.600,141.070 193.874,140.792 194.210 M147.170 194.653 C 146.245 195.656,146.241 195.680,147.092 195.161 C 147.583 194.862,148.072 194.388,148.180 194.109 C 148.466 193.362,148.252 193.477,147.170 194.653 M133.900 200.385 C 132.882 201.377,133.040 201.780,134.071 200.820 C 134.550 200.374,134.865 199.940,134.771 199.856 C 134.677 199.772,134.285 200.010,133.900 200.385 M195.919 202.999 C 195.104 203.756,194.564 204.442,194.719 204.523 C 194.874 204.603,195.606 203.979,196.346 203.135 C 198.009 201.240,197.861 201.193,195.919 202.999 M190.600 208.148 C 189.039 209.739,188.713 210.576,190.224 209.113 C 191.069 208.296,191.679 207.561,191.580 207.480 C 191.481 207.399,191.040 207.700,190.600 208.148 M179.693 211.047 C 178.755 211.833,177.798 212.865,177.568 213.339 C 177.259 213.973,177.446 213.883,178.274 213.000 C 178.893 212.340,179.936 211.305,180.591 210.700 C 182.290 209.131,181.712 209.354,179.693 211.047 M172.406 218.194 C 171.663 218.961,171.132 219.651,171.227 219.727 C 171.322 219.804,172.075 219.177,172.900 218.333 C 173.725 217.490,174.255 216.800,174.078 216.800 C 173.902 216.800,173.149 217.427,172.406 218.194 M168.585 222.100 L 166.600 224.200 168.700 222.215 C 169.855 221.123,170.800 220.178,170.800 220.115 C 170.800 219.817,170.429 220.149,168.585 222.100 M105.970 225.468 L 105.000 226.536 106.087 225.768 C 106.686 225.346,107.181 224.865,107.187 224.700 C 107.208 224.207,106.989 224.346,105.970 225.468 M165.243 225.223 C 164.717 225.661,164.371 226.105,164.475 226.208 C 164.579 226.312,165.086 225.948,165.601 225.398 C 166.724 224.204,166.562 224.125,165.243 225.223 M109.675 228.416 C 109.194 228.864,108.800 229.323,108.800 229.434 C 108.800 229.757,110.773 228.233,110.787 227.900 C 110.807 227.445,110.629 227.527,109.675 228.416 M162.675 235.219 C 162.056 235.869,161.696 236.394,161.875 236.387 C 162.261 236.372,164.400 234.535,164.400 234.219 C 164.400 233.722,163.734 234.108,162.675 235.219 M92.200 237.839 C 90.973 238.934,90.888 239.077,91.836 238.452 C 92.952 237.716,94.320 236.391,93.949 236.406 C 93.867 236.409,93.080 237.054,92.200 237.839 M143.375 246.900 L 142.200 248.200 143.500 247.025 C 144.712 245.930,144.984 245.600,144.675 245.600 C 144.606 245.600,144.021 246.185,143.375 246.900 M149.695 247.866 C 149.418 247.978,149.003 248.459,148.773 248.935 C 148.416 249.676,148.433 249.714,148.896 249.200 C 149.193 248.870,149.689 248.375,149.998 248.100 C 150.587 247.576,150.529 247.531,149.695 247.866 M90.046 250.867 C 90.021 251.234,89.896 251.864,89.770 252.267 C 89.552 252.962,89.563 252.963,89.997 252.287 C 90.248 251.896,90.373 251.266,90.273 250.887 C 90.111 250.268,90.088 250.266,90.046 250.867 M139.170 268.100 C 138.880 269.075,138.882 269.996,139.173 269.816 C 139.380 269.689,139.522 269.228,139.489 268.792 C 139.439 268.117,139.272 267.757,139.170 268.100 M84.538 281.462 C 84.494 282.221,84.578 282.363,84.832 281.961 C 85.268 281.272,85.306 280.400,84.900 280.400 C 84.735 280.400,84.572 280.878,84.538 281.462 M128.554 296.177 C 128.432 296.494,128.403 297.079,128.489 297.477 C 128.587 297.928,128.724 297.712,128.854 296.900 C 129.071 295.538,128.930 295.196,128.554 296.177 M134.262 304.500 C 134.364 304.665,135.146 304.800,136.000 304.800 C 136.854 304.800,137.636 304.665,137.738 304.500 C 137.840 304.335,137.058 304.200,136.000 304.200 C 134.942 304.200,134.160 304.335,134.262 304.500 M173.200 304.500 C 173.200 304.665,173.729 304.800,174.376 304.800 C 175.023 304.800,175.636 304.665,175.738 304.500 C 175.840 304.335,175.311 304.200,174.562 304.200 C 173.813 304.200,173.200 304.335,173.200 304.500 M77.043 324.233 C 76.710 325.100,76.736 326.197,77.082 325.852 C 77.399 325.534,77.721 323.600,77.456 323.600 C 77.362 323.600,77.176 323.885,77.043 324.233 M179.429 326.811 C 178.565 327.465,178.025 327.995,178.229 327.989 C 178.607 327.978,181.565 325.621,181.200 325.622 C 181.090 325.622,180.293 326.157,179.429 326.811 M69.954 338.900 C 69.785 339.272,69.680 341.253,69.838 341.095 C 70.128 340.805,70.451 338.800,70.208 338.800 C 70.094 338.800,69.979 338.845,69.954 338.900 M77.737 345.694 C 77.992 345.856,81.980 345.976,86.600 345.962 C 91.220 345.948,94.820 345.864,94.600 345.776 C 93.859 345.478,77.269 345.397,77.737 345.694 M177.320 345.898 C 179.255 345.972,182.315 345.971,184.120 345.897 C 185.924 345.823,184.340 345.763,180.600 345.764 C 176.860 345.764,175.384 345.825,177.320 345.898 " stroke="none" fill="#14b4dc" fill-rule="evenodd"></path></g></svg>
